<?xml version="1.0" encoding="utf-8"?>
<svg width="800px" height="800px" viewBox="0 0 24 24" xmlns="http://www.w3.org/2000/svg">
  <path d="M 403.362 134.482 L 403.362 220.971 L 489.85 220.971 L 489.85 235.823 L 403.362 235.823 L 403.362 322.311 L 388.51 322.311 L 388.51 235.823 L 302.021 235.823 L 302.021 220.971 L 388.51 220.971 L 388.51 134.482 Z M 10.856 410.937 C 11.321 396.177 16.423 381.861 23.762 369.828 C 28.579 361.951 34.728 354.281 41.176 347.236 C 50.882 336.536 61.896 326.22 72.391 315.897 C 76.319 311.921 80.129 307.935 83.904 303.708 C 96.83 289.288 109.079 272.293 123.514 257.154 C 135.855 243.471 149.933 231.815 168.745 224.494 C 157.36 220.785 146.904 215.872 137.285 209.251 C 117.311 194.808 101.581 171.613 101.581 145.179 C 101.581 118.957 116.233 94.347 134.998 78.677 C 153.769 63.039 179.91 53.449 202.476 53.351 C 228.551 54.282 253.014 68.079 269.098 86.006 C 284.822 104.296 294.969 129.26 295.325 150.594 C 295.036 173.36 284.951 194.676 270.099 208.673 C 262.035 215.79 252.69 221.173 242.172 225.087 C 256.199 231.615 267.412 241.254 276.827 252.638 C 292.62 271.751 304.021 294.504 317.006 310.736 C 329.6 326.899 344.988 338.036 358.011 351.724 C 371.099 365.495 381.617 383.361 383.144 409.073 L 383.482 419.329 L 10.736 421.095 L 10.851 411.356 Z M 40.098 379.841 C 34.101 389.563 32.83 393.532 31.589 401.047 L 362.492 399.477 C 360.412 384.799 355.367 377.626 343.816 365.705 C 332.201 353.707 316.572 342.251 302.155 324.351 C 288.171 306.545 276.625 283.828 262.083 266.095 C 247.598 248.413 232.54 235.841 207.263 237.023 C 175.684 236.351 156.17 250.677 137.574 270.174 C 126.513 282.513 116.236 296.974 103.837 310.891 C 98.124 317.272 91.984 323.499 85.923 329.462 C 75.045 340.461 64.374 350.27 55.342 360.14 C 49.341 366.76 44.278 373.044 40.098 379.841 Z M 254.112 99.175 C 240.482 83.295 223.42 72.875 202.263 73.3 C 183.352 72.746 164.035 80.42 147.777 93.997 C 131.519 107.539 121.531 124.081 121.531 145.179 C 121.531 166.068 131.356 181.082 148.763 192.934 C 165.992 205.367 187.696 211.669 209.918 211.308 C 228.877 211.508 244.502 205.431 256.667 193.922 C 269.227 182.953 276.087 169.114 275.377 150.764 C 275.788 133.232 268.089 114.691 254.112 99.175 Z"/>
</svg>